<svg xmlns="http://www.w3.org/2000/svg" xmlns:v="https://svgstorm.com"
viewBox = "0 0 896 896"
width="896"
height="896">
<g fill="None" fill-opacity="0.0" stroke="#000000" stroke-opacity="0.00" stroke-width="0.3"><path d="
M 0.00 896.00 
L 896.00 896.00
L 896.00 0.00
L 0.00 0.00
L 0.00 896.00
M 740.00 336.00 
C 739.57 337.35 739.50 338.61 739.00 340.00
C 710.77 418.87 714.59 511.06 749.00 587.00
C 761.53 586.00 774.88 589.01 784.70 596.30 C 794.52 603.59 799.88 611.83 803.78 623.22 C 807.68 634.62 805.65 650.74 800.23 661.23 C 794.81 671.72 787.30 678.81 776.92 683.92 C 766.55 689.04 749.47 691.47 738.93 686.07 C 728.39 680.68 718.18 679.02 712.75 666.25 C 707.31 653.49 693.19 658.90 681.33 662.33 C 669.46 665.76 658.01 669.41 646.92 673.92 C 635.83 678.44 625.42 682.83 614.92 687.92 C 604.43 693.01 595.67 699.17 585.75 704.75 C 575.84 710.34 567.14 716.36 557.92 722.92 C 548.70 729.47 541.21 736.07 532.25 743.25 C 523.29 750.42 517.16 756.93 508.25 765.25 C 499.34 773.57 491.07 780.02 496.99 792.01 C 502.92 804.00 496.08 820.04 491.08 830.08 C 486.08 840.12 475.85 847.06 466.00 851.00
C 465.53 851.11 465.00 851.00 465.00 851.00
C 454.92 859.19 435.93 854.07 424.92 849.08 C 413.92 844.08 405.37 833.98 400.68 822.32 C 395.98 810.66 395.52 791.86 402.00 780.00
C 393.82 774.31 389.29 765.57 381.75 759.25 C 374.21 752.93 367.04 745.86 359.25 739.75 C 351.46 733.64 343.97 726.88 335.75 721.25 C 327.54 715.61 319.57 710.21 310.92 705.08 C 302.26 699.96 293.43 694.19 284.25 689.75 C 275.07 685.30 265.41 679.93 255.77 676.23 C 246.13 672.53 234.69 667.64 224.78 665.22 C 214.87 662.80 201.85 656.91 191.98 657.02 C 182.10 657.14 180.89 673.67 171.30 678.30 C 161.71 682.94 151.50 690.19 140.00 689.00 C 128.50 687.81 117.66 685.32 108.92 678.08 C 100.18 670.84 96.22 663.93 92.22 653.78 C 88.23 643.62 89.24 627.66 93.93 617.93 C 98.62 608.20 104.21 601.42 113.25 595.25 C 122.28 589.07 135.60 586.29 147.00 587.00
C 177.86 516.45 184.99 432.06 163.00 357.00
C 162.48 356.18 162.39 356.09 162.00 355.00
C 157.76 343.14 154.05 335.97 150.68 323.32 C 147.31 310.67 130.16 314.94 119.92 310.08 C 109.69 305.21 101.46 300.45 95.25 290.75 C 89.03 281.06 87.06 268.04 87.98 256.98 C 88.89 245.91 93.69 234.59 101.30 226.30 C 108.92 218.02 119.25 212.85 130.00 211.00
C 135.05 210.13 140.62 209.45 146.00 210.00
C 164.34 211.88 180.57 225.30 188.00 242.00
C 269.42 225.05 343.57 179.97 401.00 117.00
C 381.32 86.03 400.58 38.50 438.00 34.00
C 439.14 33.65 439.73 33.20 441.00 33.00
C 485.18 26.22 518.26 79.59 494.00 116.00
C 500.07 122.83 506.64 128.91 513.25 135.75 C 519.86 142.59 526.93 148.82 534.08 154.92 C 541.24 161.02 547.99 166.85 555.75 172.25 C 563.50 177.66 571.14 183.48 579.25 188.75 C 587.35 194.03 595.64 197.66 604.08 202.92 C 612.51 208.18 621.43 211.94 630.68 216.32 C 639.92 220.70 648.11 223.78 658.07 227.93 C 668.04 232.07 677.95 232.89 688.67 237.33 C 699.39 241.77 709.58 241.18 714.30 230.30 C 719.03 219.42 727.67 218.59 736.23 213.23 C 744.79 207.87 762.09 209.09 771.22 211.78 C 780.35 214.47 788.74 219.25 795.25 226.75 C 801.75 234.26 806.38 243.88 807.93 254.07 C 809.47 264.26 807.22 278.31 802.07 287.07 C 796.93 295.84 791.26 301.91 782.30 307.30 C 773.34 312.70 760.17 315.41 749.00 314.00
C 746.45 321.40 743.16 329.12 740.00 336.00 Z"/>
</g>
<g fill="None" fill-opacity="0.0" stroke="#494949" stroke-opacity="0.80" stroke-width="0.3"><path d="
M 438.00 34.00 
C 437.37 34.42 436.35 35.19 436.00 36.00
C 439.73 36.01 443.08 34.34 447.00 35.00
C 445.97 32.63 441.96 35.46 441.00 33.00
C 439.73 33.20 439.14 33.65 438.00 34.00 Z"/>
</g>
<g fill="None" fill-opacity="0.0" stroke="#494949" stroke-opacity="0.99" stroke-width="0.3"><path d="
M 438.00 34.00 
C 400.58 38.50 381.32 86.03 401.00 117.00
C 343.57 179.97 269.42 225.05 188.00 242.00
C 180.57 225.30 164.34 211.88 146.00 210.00
C 144.11 210.20 141.69 211.58 138.78 212.78 C 135.87 213.97 130.88 211.12 130.00 211.00
C 119.25 212.85 108.92 218.02 101.30 226.30 C 93.69 234.59 88.89 245.91 87.98 256.98 C 87.06 268.04 89.03 281.06 95.25 290.75 C 101.46 300.45 109.69 305.21 119.92 310.08 C 130.16 314.94 147.31 310.67 150.68 323.32 C 154.05 335.97 157.76 343.14 162.00 355.00
C 162.14 352.55 161.09 348.37 162.00 346.00
C 163.46 351.29 164.95 356.57 166.00 362.00
C 163.93 361.12 164.79 357.96 163.00 357.00
C 184.99 432.06 177.86 516.45 147.00 587.00
C 135.60 586.29 122.28 589.07 113.25 595.25 C 104.21 601.42 98.62 608.20 93.93 617.93 C 89.24 627.66 88.23 643.62 92.22 653.78 C 96.22 663.93 100.18 670.84 108.92 678.08 C 117.66 685.32 128.50 687.81 140.00 689.00 C 151.50 690.19 161.71 682.94 171.30 678.30 C 180.89 673.67 182.10 657.14 191.98 657.02 C 201.85 656.91 214.87 662.80 224.78 665.22 C 234.69 667.64 246.13 672.53 255.77 676.23 C 265.41 679.93 275.07 685.30 284.25 689.75 C 293.43 694.19 302.26 699.96 310.92 705.08 C 319.57 710.21 327.54 715.61 335.75 721.25 C 343.97 726.88 351.46 733.64 359.25 739.75 C 367.04 745.86 374.21 752.93 381.75 759.25 C 389.29 765.57 393.82 774.31 402.00 780.00
C 395.52 791.86 395.98 810.66 400.68 822.32 C 405.37 833.98 413.92 844.08 424.92 849.08 C 435.93 854.07 454.92 859.19 465.00 851.00
C 463.28 851.38 461.70 851.44 460.00 852.00
C 460.54 849.89 468.20 847.67 466.00 851.00
C 475.85 847.06 486.08 840.12 491.08 830.08 C 496.08 820.04 502.92 804.00 496.99 792.01 C 491.07 780.02 499.34 773.57 508.25 765.25 C 517.16 756.93 523.29 750.42 532.25 743.25 C 541.21 736.07 548.70 729.47 557.92 722.92 C 567.14 716.36 575.84 710.34 585.75 704.75 C 595.67 699.17 604.43 693.01 614.92 687.92 C 625.42 682.83 635.83 678.44 646.92 673.92 C 658.01 669.41 669.46 665.76 681.33 662.33 C 693.19 658.90 707.31 653.49 712.75 666.25 C 718.18 679.02 728.39 680.68 738.93 686.07 C 749.47 691.47 766.55 689.04 776.92 683.92 C 787.30 678.81 794.81 671.72 800.23 661.23 C 805.65 650.74 807.68 634.62 803.78 623.22 C 799.88 611.83 794.52 603.59 784.70 596.30 C 774.88 589.01 761.53 586.00 749.00 587.00
C 714.59 511.06 710.77 418.87 739.00 340.00
C 738.96 341.04 737.47 340.55 737.93 337.92 C 738.39 335.30 741.24 334.40 740.00 336.00
C 743.16 329.12 746.45 321.40 749.00 314.00
C 760.17 315.41 773.34 312.70 782.30 307.30 C 791.26 301.91 796.93 295.84 802.07 287.07 C 807.22 278.31 809.47 264.26 807.93 254.07 C 806.38 243.88 801.75 234.26 795.25 226.75 C 788.74 219.25 780.35 214.47 771.22 211.78 C 762.09 209.09 744.79 207.87 736.23 213.23 C 727.67 218.59 719.03 219.42 714.30 230.30 C 709.58 241.18 699.39 241.77 688.67 237.33 C 677.95 232.89 668.04 232.07 658.07 227.93 C 648.11 223.78 639.92 220.70 630.68 216.32 C 621.43 211.94 612.51 208.18 604.08 202.92 C 595.64 197.66 587.35 194.03 579.25 188.75 C 571.14 183.48 563.50 177.66 555.75 172.25 C 547.99 166.85 541.24 161.02 534.08 154.92 C 526.93 148.82 519.86 142.59 513.25 135.75 C 506.64 128.91 500.07 122.83 494.00 116.00
C 518.26 79.59 485.18 26.22 441.00 33.00
C 441.96 35.46 445.97 32.63 447.00 35.00
C 443.08 34.34 439.73 36.01 436.00 36.00
C 436.35 35.19 437.37 34.42 438.00 34.00
M 451.00 56.00 
C 473.27 58.34 486.39 87.44 472.70 105.69 C 459.00 123.95 430.92 122.40 420.23 101.77 C 409.54 81.14 426.69 53.44 451.00 56.00
M 480.00 132.00 
C 540.13 197.95 618.16 245.57 704.00 262.00
C 703.69 268.33 705.03 274.25 707.00 280.00
C 695.04 287.15 683.62 294.47 671.75 301.75 C 659.88 309.04 647.62 315.25 635.77 322.77 C 623.92 330.29 612.23 336.54 600.25 344.25 C 588.28 351.97 576.74 357.13 564.75 365.75 C 552.76 374.37 538.61 364.37 526.77 357.23 C 514.93 350.09 503.38 344.25 492.75 334.25 C 482.13 324.24 474.23 316.59 466.75 303.25 C 459.26 289.92 456.29 273.22 457.00 256.00 C 457.71 238.78 456.63 217.07 457.00 199.00 C 457.37 180.93 456.72 160.30 457.00 142.00
C 465.04 139.76 473.01 136.83 480.00 132.00
M 437.00 141.00 
C 437.06 151.65 436.93 162.36 437.00 173.00 C 437.07 183.64 436.86 194.39 437.00 205.00 C 437.14 215.61 436.71 227.56 437.00 238.00 C 437.29 248.44 436.34 260.02 437.00 270.00 C 437.66 279.98 434.85 289.17 431.23 297.23 C 427.61 305.28 424.27 310.61 419.23 317.23 C 414.19 323.85 409.26 328.03 403.25 333.25 C 397.25 338.48 391.27 343.60 384.75 347.75 C 378.23 351.91 371.80 356.82 364.77 359.77 C 357.74 362.72 349.72 369.26 342.32 370.32 C 334.92 371.38 328.76 363.03 321.77 360.23 C 314.78 357.43 309.03 351.21 301.92 348.08 C 294.81 344.95 288.28 339.30 281.25 335.75 C 274.23 332.20 268.45 327.33 261.30 323.70 C 254.16 320.06 248.14 314.90 240.77 311.23 C 233.40 307.56 228.68 302.89 220.77 299.23 C 212.86 295.57 209.88 290.96 200.77 287.23 C 191.66 283.50 188.03 278.17 191.00 268.00 C 193.97 257.83 203.28 259.92 212.22 257.22 C 221.17 254.53 229.85 253.37 238.07 250.07 C 246.30 246.78 253.42 244.43 261.22 241.22 C 269.03 238.02 275.92 235.04 283.23 231.23 C 290.54 227.42 298.21 224.28 305.08 220.08 C 311.94 215.87 318.64 212.60 325.23 208.23 C 331.82 203.86 338.74 199.61 345.08 195.08 C 351.42 190.55 357.25 186.07 363.25 181.25 C 369.25 176.42 374.93 171.81 380.75 166.75 C 386.57 161.70 391.82 155.62 397.75 150.75 C 403.68 145.88 407.62 138.82 413.30 134.30 C 418.99 129.79 429.80 143.53 437.00 141.00
M 143.00 232.00 
C 164.78 234.29 177.01 262.29 163.70 279.70 C 150.38 297.10 123.61 295.62 113.08 275.92 C 102.55 256.22 119.66 229.54 143.00 232.00
M 764.00 233.00 
C 784.46 237.24 792.43 266.56 778.25 281.25 C 764.07 295.93 737.36 295.14 728.70 273.30 C 720.03 251.47 740.11 228.05 764.00 233.00
M 166.00 594.00 
C 206.45 505.63 205.78 395.42 166.00 307.00
C 170.22 304.05 175.18 301.61 178.00 297.00
C 185.63 300.57 191.90 305.68 199.25 309.75 C 206.59 313.83 214.10 318.22 221.23 322.77 C 228.36 327.32 236.23 330.96 243.23 335.77 C 250.23 340.58 258.10 344.20 265.08 348.92 C 272.06 353.64 280.36 357.08 287.08 361.92 C 293.79 366.77 302.81 369.67 308.75 375.25 C 314.68 380.84 326.80 380.07 328.97 389.03 C 331.14 397.99 328.10 413.86 329.00 424.00 C 329.90 434.14 328.72 448.69 329.00 459.00 C 329.28 469.31 329.00 482.67 327.00 492.00 C 325.00 501.33 322.14 509.65 317.08 517.08 C 312.01 524.51 302.88 525.99 296.25 531.25 C 289.63 536.52 281.79 538.92 274.92 543.92 C 268.05 548.92 260.06 552.24 252.92 556.92 C 245.79 561.61 238.46 565.44 231.25 570.25 C 224.05 575.07 216.53 578.02 209.30 583.30 C 202.07 588.58 194.84 590.56 187.31 596.31 C 179.77 602.05 173.26 601.62 166.00 594.00
M 725.00 582.00 
C 724.45 580.46 723.96 578.75 724.00 577.00
C 725.40 578.02 728.71 585.05 725.00 583.00
C 727.43 588.89 730.57 592.68 725.00 597.00
C 724.57 597.56 722.83 602.62 720.00 603.00
C 719.45 601.18 721.75 600.53 722.00 599.00
C 720.90 599.81 719.34 600.53 719.00 602.00
C 711.10 598.14 703.48 593.84 695.92 589.08 C 688.36 584.32 680.54 579.76 672.92 575.08 C 665.30 570.41 657.42 565.95 649.92 561.08 C 642.42 556.22 634.18 552.23 626.77 547.23 C 619.36 542.23 610.84 538.82 603.77 533.23 C 596.70 527.64 586.80 526.12 580.31 519.70 C 573.81 513.27 571.91 502.46 569.67 493.33 C 567.43 484.20 566.02 470.28 566.00 460.00 C 565.99 449.72 564.86 433.07 566.00 423.00 C 567.14 412.93 562.35 395.08 567.26 387.26 C 572.16 379.44 583.55 378.93 590.23 373.23 C 596.91 367.53 606.07 364.57 613.23 359.23 C 620.39 353.89 629.28 350.88 636.70 345.70 C 644.11 340.51 652.03 336.73 659.70 331.70 C 667.37 326.67 674.98 323.16 682.75 317.75 C 690.51 312.34 698.21 310.38 706.08 304.08 C 713.96 297.79 721.56 298.17 729.00 306.00
C 692.38 391.02 687.59 496.38 725.00 582.00
M 561.00 520.00 
C 515.53 532.82 469.41 561.36 447.00 605.00
C 427.18 559.81 378.79 533.11 334.00 520.00
C 351.74 479.16 342.81 430.99 345.00 386.00
C 385.92 370.68 429.36 343.29 447.00 301.00
C 452.20 307.89 455.77 316.76 461.25 323.75 C 466.73 330.75 472.07 336.98 478.75 343.25 C 485.44 349.52 492.62 353.50 499.70 359.30 C 506.77 365.11 515.20 367.82 522.70 373.31 C 530.19 378.79 540.04 379.97 547.68 385.32 C 555.32 390.68 549.83 408.86 551.00 419.00 C 552.17 429.14 550.67 445.03 551.00 456.00 C 551.33 466.97 551.04 480.50 552.99 491.01 C 554.94 501.52 557.78 510.03 561.00 520.00
M 713.00 358.00 
C 713.08 360.44 712.66 363.40 711.00 365.00
C 710.92 362.56 711.35 359.60 713.00 358.00
M 167.00 364.00 
C 169.79 370.92 164.41 369.35 167.00 364.00
M 169.00 372.00 
C 171.79 376.83 166.21 375.36 169.00 372.00
M 553.00 469.00 
C 554.26 476.32 550.06 473.99 553.00 469.00
M 415.00 764.00 
C 355.05 698.32 276.62 651.85 191.00 636.00
C 191.64 629.58 188.31 624.20 188.00 618.00
C 197.94 613.90 206.66 607.37 216.08 602.08 C 225.50 596.79 234.77 590.42 244.23 585.23 C 253.68 580.04 262.74 573.21 272.25 568.25 C 281.75 563.29 289.99 555.97 299.75 551.75 C 309.50 547.53 318.21 537.13 329.01 536.01 C 339.80 534.88 352.88 543.42 362.68 547.32 C 372.47 551.22 381.28 557.81 390.23 563.77 C 399.18 569.73 406.96 575.72 414.75 584.25 C 422.54 592.77 427.78 599.88 432.77 611.23 C 437.76 622.58 436.74 637.17 437.00 651.00 C 437.26 664.83 436.20 681.41 437.00 696.00 C 437.80 710.59 435.14 725.93 437.00 741.00 C 438.86 756.07 425.70 756.74 415.00 764.00
M 681.00 603.00 
C 680.48 602.04 679.81 601.20 680.00 600.00
C 680.83 600.52 683.91 602.25 682.00 603.00
C 685.60 606.54 693.13 611.24 698.00 613.00
C 697.23 612.20 696.53 610.94 696.00 610.00
C 698.37 610.03 699.72 612.50 702.00 613.00
C 701.54 614.86 699.96 613.16 699.00 613.00
C 700.94 616.12 708.17 616.37 707.64 620.70 C 707.12 625.03 703.68 630.04 705.00 635.00
C 674.28 642.40 643.03 650.48 615.00 665.00
C 616.11 664.03 616.05 665.30 613.92 666.92 C 611.79 668.55 609.78 667.04 610.00 667.00
C 577.69 682.83 544.21 702.77 518.00 728.00
C 519.23 727.13 520.36 725.86 522.00 726.00
C 520.92 727.90 517.44 731.08 516.00 730.00
C 511.71 733.74 507.07 737.66 502.75 741.75 C 498.43 745.84 493.55 749.81 489.25 754.25 C 484.95 758.69 482.02 765.61 476.75 761.25 C 471.49 756.89 464.56 754.86 458.00 754.00
C 457.34 736.41 457.37 717.64 457.00 698.00 C 456.63 678.36 457.41 654.40 458.00 636.00 C 458.59 617.60 465.02 602.65 476.25 589.25 C 487.49 575.86 497.97 569.14 511.70 559.70 C 525.42 550.26 539.26 544.24 555.22 538.22 C 571.19 532.21 586.16 546.61 599.75 554.25 C 613.33 561.90 626.77 570.71 640.25 578.75 C 653.72 586.80 667.79 594.39 681.00 603.00
M 760.00 588.00 
C 756.01 590.80 753.81 586.90 760.00 588.00
M 147.00 609.00 
C 183.27 615.50 170.12 676.26 134.00 667.00 C 97.88 657.74 110.27 602.42 147.00 609.00
M 773.00 615.00 
C 772.47 614.26 772.12 613.06 771.00 613.00
C 772.63 611.70 774.44 609.46 777.00 610.00
C 778.70 611.72 777.03 615.29 780.00 616.00
C 779.26 617.35 777.17 616.96 776.00 618.00
C 787.98 629.97 785.34 648.75 774.00 660.00
C 773.43 660.81 773.05 661.49 772.00 662.00
C 761.44 670.27 749.92 666.29 739.00 662.00
C 740.05 662.78 740.93 664.30 742.00 665.00
C 738.58 667.20 736.71 663.96 734.00 663.00
C 734.53 661.40 736.75 662.28 738.00 662.00
C 732.53 654.17 723.95 645.49 726.00 635.00 C 728.05 624.51 732.88 617.31 742.08 612.08 C 751.29 606.85 764.78 608.35 773.00 615.00
M 707.00 630.00 
C 708.21 636.27 704.10 633.91 707.00 630.00
M 786.00 634.00 
C 787.29 642.37 783.03 640.06 786.00 634.00
M 705.00 655.00 
C 700.17 659.84 696.84 653.38 705.00 655.00
M 453.00 775.00 
C 474.33 779.03 483.53 805.17 470.25 821.25 C 456.96 837.33 431.98 837.37 421.70 816.30 C 411.42 795.23 429.12 775.31 451.00 774.00
C 450.79 774.01 456.22 773.88 453.00 775.00 Z"/>
</g>
<g fill="None" fill-opacity="0.0" stroke="#000000" stroke-opacity="0.00" stroke-width="0.3"><path d="
M 451.00 56.00 
C 426.69 53.44 409.54 81.14 420.23 101.77 C 430.92 122.40 459.00 123.95 472.70 105.69 C 486.39 87.44 473.27 58.34 451.00 56.00 Z"/>
</g>
<g fill="None" fill-opacity="0.0" stroke="#000000" stroke-opacity="0.00" stroke-width="0.3"><path d="
M 480.00 132.00 
C 473.01 136.83 465.04 139.76 457.00 142.00
C 456.72 160.30 457.37 180.93 457.00 199.00 C 456.63 217.07 457.71 238.78 457.00 256.00 C 456.29 273.22 459.26 289.92 466.75 303.25 C 474.23 316.59 482.13 324.24 492.75 334.25 C 503.38 344.25 514.93 350.09 526.77 357.23 C 538.61 364.37 552.76 374.37 564.75 365.75 C 576.74 357.13 588.28 351.97 600.25 344.25 C 612.23 336.54 623.92 330.29 635.77 322.77 C 647.62 315.25 659.88 309.04 671.75 301.75 C 683.62 294.47 695.04 287.15 707.00 280.00
C 705.03 274.25 703.69 268.33 704.00 262.00
C 618.16 245.57 540.13 197.95 480.00 132.00 Z"/>
</g>
<g fill="None" fill-opacity="0.0" stroke="#000000" stroke-opacity="0.00" stroke-width="0.3"><path d="
M 437.00 141.00 
C 429.80 143.53 418.99 129.79 413.30 134.30 C 407.62 138.82 403.68 145.88 397.75 150.75 C 391.82 155.62 386.57 161.70 380.75 166.75 C 374.93 171.81 369.25 176.42 363.25 181.25 C 357.25 186.07 351.42 190.55 345.08 195.08 C 338.74 199.61 331.82 203.86 325.23 208.23 C 318.64 212.60 311.94 215.87 305.08 220.08 C 298.21 224.28 290.54 227.42 283.23 231.23 C 275.92 235.04 269.03 238.02 261.22 241.22 C 253.42 244.43 246.30 246.78 238.07 250.07 C 229.85 253.37 221.17 254.53 212.22 257.22 C 203.28 259.92 193.97 257.83 191.00 268.00 C 188.03 278.17 191.66 283.50 200.77 287.23 C 209.88 290.96 212.86 295.57 220.77 299.23 C 228.68 302.89 233.40 307.56 240.77 311.23 C 248.14 314.90 254.16 320.06 261.30 323.70 C 268.45 327.33 274.23 332.20 281.25 335.75 C 288.28 339.30 294.81 344.95 301.92 348.08 C 309.03 351.21 314.78 357.43 321.77 360.23 C 328.76 363.03 334.92 371.38 342.32 370.32 C 349.72 369.26 357.74 362.72 364.77 359.77 C 371.80 356.82 378.23 351.91 384.75 347.75 C 391.27 343.60 397.25 338.48 403.25 333.25 C 409.26 328.03 414.19 323.85 419.23 317.23 C 424.27 310.61 427.61 305.28 431.23 297.23 C 434.85 289.17 437.66 279.98 437.00 270.00 C 436.34 260.02 437.29 248.44 437.00 238.00 C 436.71 227.56 437.14 215.61 437.00 205.00 C 436.86 194.39 437.07 183.64 437.00 173.00 C 436.93 162.36 437.06 151.65 437.00 141.00 Z"/>
</g>
<g fill="None" fill-opacity="0.0" stroke="#494949" stroke-opacity="0.73" stroke-width="0.3"><path d="
M 130.00 211.00 
C 130.88 211.12 135.87 213.97 138.78 212.78 C 141.69 211.58 144.11 210.20 146.00 210.00
C 140.62 209.45 135.05 210.13 130.00 211.00 Z"/>
</g>
<g fill="None" fill-opacity="0.0" stroke="#000000" stroke-opacity="0.00" stroke-width="0.3"><path d="
M 143.00 232.00 
C 119.66 229.54 102.55 256.22 113.08 275.92 C 123.61 295.62 150.38 297.10 163.70 279.70 C 177.01 262.29 164.78 234.29 143.00 232.00 Z"/>
</g>
<g fill="None" fill-opacity="0.0" stroke="#000000" stroke-opacity="0.00" stroke-width="0.3"><path d="
M 764.00 233.00 
C 740.11 228.05 720.03 251.47 728.70 273.30 C 737.36 295.14 764.07 295.93 778.25 281.25 C 792.43 266.56 784.46 237.24 764.00 233.00 Z"/>
</g>
<g fill="None" fill-opacity="0.0" stroke="#000000" stroke-opacity="0.00" stroke-width="0.3"><path d="
M 166.00 594.00 
C 173.26 601.62 179.77 602.05 187.31 596.31 C 194.84 590.56 202.07 588.58 209.30 583.30 C 216.53 578.02 224.05 575.07 231.25 570.25 C 238.46 565.44 245.79 561.61 252.92 556.92 C 260.06 552.24 268.05 548.92 274.92 543.92 C 281.79 538.92 289.63 536.52 296.25 531.25 C 302.88 525.99 312.01 524.51 317.08 517.08 C 322.14 509.65 325.00 501.33 327.00 492.00 C 329.00 482.67 329.28 469.31 329.00 459.00 C 328.72 448.69 329.90 434.14 329.00 424.00 C 328.10 413.86 331.14 397.99 328.97 389.03 C 326.80 380.07 314.68 380.84 308.75 375.25 C 302.81 369.67 293.79 366.77 287.08 361.92 C 280.36 357.08 272.06 353.64 265.08 348.92 C 258.10 344.20 250.23 340.58 243.23 335.77 C 236.23 330.96 228.36 327.32 221.23 322.77 C 214.10 318.22 206.59 313.83 199.25 309.75 C 191.90 305.68 185.63 300.57 178.00 297.00
C 175.18 301.61 170.22 304.05 166.00 307.00
C 205.78 395.42 206.45 505.63 166.00 594.00 Z"/>
</g>
<g fill="None" fill-opacity="0.0" stroke="#000000" stroke-opacity="0.00" stroke-width="0.3"><path d="
M 722.00 599.00 
C 722.95 598.30 724.12 597.69 725.00 597.00
C 730.57 592.68 727.43 588.89 725.00 583.00
C 724.82 582.57 725.00 582.00 725.00 582.00
C 687.59 496.38 692.38 391.02 729.00 306.00
C 721.56 298.17 713.96 297.79 706.08 304.08 C 698.21 310.38 690.51 312.34 682.75 317.75 C 674.98 323.16 667.37 326.67 659.70 331.70 C 652.03 336.73 644.11 340.51 636.70 345.70 C 629.28 350.88 620.39 353.89 613.23 359.23 C 606.07 364.57 596.91 367.53 590.23 373.23 C 583.55 378.93 572.16 379.44 567.26 387.26 C 562.35 395.08 567.14 412.93 566.00 423.00 C 564.86 433.07 565.99 449.72 566.00 460.00 C 566.02 470.28 567.43 484.20 569.67 493.33 C 571.91 502.46 573.81 513.27 580.31 519.70 C 586.80 526.12 596.70 527.64 603.77 533.23 C 610.84 538.82 619.36 542.23 626.77 547.23 C 634.18 552.23 642.42 556.22 649.92 561.08 C 657.42 565.95 665.30 570.41 672.92 575.08 C 680.54 579.76 688.36 584.32 695.92 589.08 C 703.48 593.84 711.10 598.14 719.00 602.00
C 719.34 600.53 720.90 599.81 722.00 599.00 Z"/>
</g>
<g fill="None" fill-opacity="0.0" stroke="#000000" stroke-opacity="0.00" stroke-width="0.3"><path d="
M 561.00 520.00 
C 557.78 510.03 554.94 501.52 552.99 491.01 C 551.04 480.50 551.33 466.97 551.00 456.00 C 550.67 445.03 552.17 429.14 551.00 419.00 C 549.83 408.86 555.32 390.68 547.68 385.32 C 540.04 379.97 530.19 378.79 522.70 373.31 C 515.20 367.82 506.77 365.11 499.70 359.30 C 492.62 353.50 485.44 349.52 478.75 343.25 C 472.07 336.98 466.73 330.75 461.25 323.75 C 455.77 316.76 452.20 307.89 447.00 301.00
C 429.36 343.29 385.92 370.68 345.00 386.00
C 342.81 430.99 351.74 479.16 334.00 520.00
C 378.79 533.11 427.18 559.81 447.00 605.00
C 469.41 561.36 515.53 532.82 561.00 520.00
M 459.00 362.00 
C 526.09 368.49 562.87 453.99 522.23 507.23 C 481.59 560.47 396.55 557.16 365.75 494.25 C 334.94 431.35 386.49 354.98 459.00 362.00 Z"/>
</g>
<g fill="None" fill-opacity="0.0" stroke="#474747" stroke-opacity="0.76" stroke-width="0.3"><path d="
M 739.00 340.00 
C 739.50 338.61 739.57 337.35 740.00 336.00
C 741.24 334.40 738.39 335.30 737.93 337.92 C 737.47 340.55 738.96 341.04 739.00 340.00 Z"/>
</g>
<g fill="None" fill-opacity="0.0" stroke="#494949" stroke-opacity="0.86" stroke-width="0.3"><path d="
M 162.00 355.00 
C 162.39 356.09 162.48 356.18 163.00 357.00
C 164.79 357.96 163.93 361.12 166.00 362.00
C 164.95 356.57 163.46 351.29 162.00 346.00
C 161.09 348.37 162.14 352.55 162.00 355.00 Z"/>
</g>
<g fill="None" fill-opacity="0.0" stroke="#494949" stroke-opacity="0.76" stroke-width="0.3"><path d="
M 713.00 358.00 
C 711.35 359.60 710.92 362.56 711.00 365.00
C 712.66 363.40 713.08 360.44 713.00 358.00 Z"/>
</g>
<g fill="None" fill-opacity="0.0" stroke="#494949" stroke-opacity="0.99" stroke-width="0.3"><path d="
M 459.00 362.00 
C 386.49 354.98 334.94 431.35 365.75 494.25 C 396.55 557.16 481.59 560.47 522.23 507.23 C 562.87 453.99 526.09 368.49 459.00 362.00
M 453.00 402.00 
C 490.23 406.50 511.97 451.92 489.70 482.70 C 467.42 513.47 420.21 510.31 402.23 476.77 C 384.25 443.23 413.58 397.24 453.00 402.00 Z"/>
</g>
<g fill="None" fill-opacity="0.0" stroke="#494949" stroke-opacity="0.83" stroke-width="0.3"><path d="
M 167.00 364.00 
C 164.41 369.35 169.79 370.92 167.00 364.00 Z"/>
</g>
<g fill="None" fill-opacity="0.0" stroke="#494949" stroke-opacity="0.82" stroke-width="0.3"><path d="
M 169.00 372.00 
C 166.21 375.36 171.79 376.83 169.00 372.00 Z"/>
</g>
<g fill="None" fill-opacity="0.0" stroke="#000000" stroke-opacity="0.00" stroke-width="0.3"><path d="
M 453.00 402.00 
C 413.58 397.24 384.25 443.23 402.23 476.77 C 420.21 510.31 467.42 513.47 489.70 482.70 C 511.97 451.92 490.23 406.50 453.00 402.00 Z"/>
</g>
<g fill="None" fill-opacity="0.0" stroke="#494949" stroke-opacity="0.83" stroke-width="0.3"><path d="
M 553.00 469.00 
C 550.06 473.99 554.26 476.32 553.00 469.00 Z"/>
</g>
<g fill="None" fill-opacity="0.0" stroke="#000000" stroke-opacity="0.00" stroke-width="0.3"><path d="
M 415.00 764.00 
C 425.70 756.74 438.86 756.07 437.00 741.00 C 435.14 725.93 437.80 710.59 437.00 696.00 C 436.20 681.41 437.26 664.83 437.00 651.00 C 436.74 637.17 437.76 622.58 432.77 611.23 C 427.78 599.88 422.54 592.77 414.75 584.25 C 406.96 575.72 399.18 569.73 390.23 563.77 C 381.28 557.81 372.47 551.22 362.68 547.32 C 352.88 543.42 339.80 534.88 329.01 536.01 C 318.21 537.13 309.50 547.53 299.75 551.75 C 289.99 555.97 281.75 563.29 272.25 568.25 C 262.74 573.21 253.68 580.04 244.23 585.23 C 234.77 590.42 225.50 596.79 216.08 602.08 C 206.66 607.37 197.94 613.90 188.00 618.00
C 188.31 624.20 191.64 629.58 191.00 636.00
C 276.62 651.85 355.05 698.32 415.00 764.00 Z"/>
</g>
<g fill="None" fill-opacity="0.0" stroke="#000000" stroke-opacity="0.00" stroke-width="0.3"><path d="
M 516.00 730.00 
C 516.58 729.50 517.46 728.52 518.00 728.00
C 544.21 702.77 577.69 682.83 610.00 667.00
C 611.68 666.18 613.37 665.72 615.00 665.00
C 643.03 650.48 674.28 642.40 705.00 635.00
C 703.68 630.04 707.12 625.03 707.64 620.70 C 708.17 616.37 700.94 616.12 699.00 613.00
C 698.58 612.82 698.00 613.00 698.00 613.00
C 693.13 611.24 685.60 606.54 682.00 603.00
C 681.75 602.75 681.00 603.00 681.00 603.00
C 667.79 594.39 653.72 586.80 640.25 578.75 C 626.77 570.71 613.33 561.90 599.75 554.25 C 586.16 546.61 571.19 532.21 555.22 538.22 C 539.26 544.24 525.42 550.26 511.70 559.70 C 497.97 569.14 487.49 575.86 476.25 589.25 C 465.02 602.65 458.59 617.60 458.00 636.00 C 457.41 654.40 456.63 678.36 457.00 698.00 C 457.37 717.64 457.34 736.41 458.00 754.00
C 464.56 754.86 471.49 756.89 476.75 761.25 C 482.02 765.61 484.95 758.69 489.25 754.25 C 493.55 749.81 498.43 745.84 502.75 741.75 C 507.07 737.66 511.71 733.74 516.00 730.00 Z"/>
</g>
<g fill="None" fill-opacity="0.0" stroke="#494949" stroke-opacity="0.78" stroke-width="0.3"><path d="
M 725.00 582.00 
C 725.00 582.00 724.82 582.57 725.00 583.00
C 728.71 585.05 725.40 578.02 724.00 577.00
C 723.96 578.75 724.45 580.46 725.00 582.00 Z"/>
</g>
<g fill="None" fill-opacity="0.0" stroke="#494949" stroke-opacity="0.70" stroke-width="0.3"><path d="
M 760.00 588.00 
C 753.81 586.90 756.01 590.80 760.00 588.00 Z"/>
</g>
<g fill="None" fill-opacity="0.0" stroke="#494949" stroke-opacity="0.83" stroke-width="0.3"><path d="
M 722.00 599.00 
C 721.75 600.53 719.45 601.18 720.00 603.00
C 722.83 602.62 724.57 597.56 725.00 597.00
C 724.12 597.69 722.95 598.30 722.00 599.00 Z"/>
</g>
<g fill="None" fill-opacity="0.0" stroke="#494949" stroke-opacity="0.75" stroke-width="0.3"><path d="
M 681.00 603.00 
C 681.00 603.00 681.75 602.75 682.00 603.00
C 683.91 602.25 680.83 600.52 680.00 600.00
C 679.81 601.20 680.48 602.04 681.00 603.00 Z"/>
</g>
<g fill="None" fill-opacity="0.0" stroke="#000000" stroke-opacity="0.00" stroke-width="0.3"><path d="
M 147.00 609.00 
C 110.27 602.42 97.88 657.74 134.00 667.00 C 170.12 676.26 183.27 615.50 147.00 609.00 Z"/>
</g>
<g fill="None" fill-opacity="0.0" stroke="#000000" stroke-opacity="0.00" stroke-width="0.3"><path d="
M 738.00 662.00 
C 738.50 662.03 739.00 662.00 739.00 662.00
C 749.92 666.29 761.44 670.27 772.00 662.00
C 772.49 661.62 773.56 660.44 774.00 660.00
C 785.34 648.75 787.98 629.97 776.00 618.00
C 775.21 617.21 773.88 615.71 773.00 615.00
C 764.78 608.35 751.29 606.85 742.08 612.08 C 732.88 617.31 728.05 624.51 726.00 635.00 C 723.95 645.49 732.53 654.17 738.00 662.00 Z"/>
</g>
<g fill="None" fill-opacity="0.0" stroke="#494949" stroke-opacity="0.84" stroke-width="0.3"><path d="
M 698.00 613.00 
C 698.00 613.00 698.58 612.82 699.00 613.00
C 699.96 613.16 701.54 614.86 702.00 613.00
C 699.72 612.50 698.37 610.03 696.00 610.00
C 696.53 610.94 697.23 612.20 698.00 613.00 Z"/>
</g>
<g fill="None" fill-opacity="0.0" stroke="#494949" stroke-opacity="0.80" stroke-width="0.3"><path d="
M 773.00 615.00 
C 773.88 615.71 775.21 617.21 776.00 618.00
C 777.17 616.96 779.26 617.35 780.00 616.00
C 777.03 615.29 778.70 611.72 777.00 610.00
C 774.44 609.46 772.63 611.70 771.00 613.00
C 772.12 613.06 772.47 614.26 773.00 615.00 Z"/>
</g>
<g fill="None" fill-opacity="0.0" stroke="#494949" stroke-opacity="0.69" stroke-width="0.3"><path d="
M 707.00 630.00 
C 704.10 633.91 708.21 636.27 707.00 630.00 Z"/>
</g>
<g fill="None" fill-opacity="0.0" stroke="#494949" stroke-opacity="0.71" stroke-width="0.3"><path d="
M 786.00 634.00 
C 783.03 640.06 787.29 642.37 786.00 634.00 Z"/>
</g>
<g fill="None" fill-opacity="0.0" stroke="#494949" stroke-opacity="0.80" stroke-width="0.3"><path d="
M 705.00 655.00 
C 696.84 653.38 700.17 659.84 705.00 655.00 Z"/>
</g>
<g fill="None" fill-opacity="0.0" stroke="#494949" stroke-opacity="0.71" stroke-width="0.3"><path d="
M 772.00 662.00 
C 773.05 661.49 773.43 660.81 774.00 660.00
C 773.56 660.44 772.49 661.62 772.00 662.00 Z"/>
</g>
<g fill="None" fill-opacity="0.0" stroke="#494949" stroke-opacity="0.83" stroke-width="0.3"><path d="
M 739.00 662.00 
C 739.00 662.00 738.50 662.03 738.00 662.00
C 736.75 662.28 734.53 661.40 734.00 663.00
C 736.71 663.96 738.58 667.20 742.00 665.00
C 740.93 664.30 740.05 662.78 739.00 662.00 Z"/>
</g>
<g fill="None" fill-opacity="0.0" stroke="#494949" stroke-opacity="0.85" stroke-width="0.3"><path d="
M 610.00 667.00 
C 609.78 667.04 611.79 668.55 613.92 666.92 C 616.05 665.30 616.11 664.03 615.00 665.00
C 613.37 665.72 611.68 666.18 610.00 667.00 Z"/>
</g>
<g fill="None" fill-opacity="0.0" stroke="#494949" stroke-opacity="0.75" stroke-width="0.3"><path d="
M 518.00 728.00 
C 517.46 728.52 516.58 729.50 516.00 730.00
C 517.44 731.08 520.92 727.90 522.00 726.00
C 520.36 725.86 519.23 727.13 518.00 728.00 Z"/>
</g>
<g fill="None" fill-opacity="0.0" stroke="#494949" stroke-opacity="0.63" stroke-width="0.3"><path d="
M 451.00 774.00 
C 451.47 774.13 452.12 774.83 453.00 775.00
C 456.22 773.88 450.79 774.01 451.00 774.00 Z"/>
</g>
<g fill="None" fill-opacity="0.0" stroke="#000000" stroke-opacity="0.00" stroke-width="0.3"><path d="
M 453.00 775.00 
C 452.12 774.83 451.47 774.13 451.00 774.00
C 429.12 775.31 411.42 795.23 421.70 816.30 C 431.98 837.37 456.96 837.33 470.25 821.25 C 483.53 805.17 474.33 779.03 453.00 775.00 Z"/>
</g>
<g fill="None" fill-opacity="0.0" stroke="#494949" stroke-opacity="0.76" stroke-width="0.3"><path d="
M 465.00 851.00 
C 465.00 851.00 465.53 851.11 466.00 851.00
C 468.20 847.67 460.54 849.89 460.00 852.00
C 461.70 851.44 463.28 851.38 465.00 851.00 Z"/>
</g>
<g fill="#000000" fill-opacity="0.00" stroke="None">
<path d="
M 0.00 896.00 
L 896.00 896.00
L 896.00 0.00
L 0.00 0.00
L 0.00 896.00
M 740.00 336.00 
C 739.57 337.35 739.50 338.61 739.00 340.00
C 710.77 418.87 714.59 511.06 749.00 587.00
C 761.53 586.00 774.88 589.01 784.70 596.30 C 794.52 603.59 799.88 611.83 803.78 623.22 C 807.68 634.62 805.65 650.74 800.23 661.23 C 794.81 671.72 787.30 678.81 776.92 683.92 C 766.55 689.04 749.47 691.47 738.93 686.07 C 728.39 680.68 718.18 679.02 712.75 666.25 C 707.31 653.49 693.19 658.90 681.33 662.33 C 669.46 665.76 658.01 669.41 646.92 673.92 C 635.83 678.44 625.42 682.83 614.92 687.92 C 604.43 693.01 595.67 699.17 585.75 704.75 C 575.84 710.34 567.14 716.36 557.92 722.92 C 548.70 729.47 541.21 736.07 532.25 743.25 C 523.29 750.42 517.16 756.93 508.25 765.25 C 499.34 773.57 491.07 780.02 496.99 792.01 C 502.92 804.00 496.08 820.04 491.08 830.08 C 486.08 840.12 475.85 847.06 466.00 851.00
C 465.53 851.11 465.00 851.00 465.00 851.00
C 454.92 859.19 435.93 854.07 424.92 849.08 C 413.92 844.08 405.37 833.98 400.68 822.32 C 395.98 810.66 395.52 791.86 402.00 780.00
C 393.82 774.31 389.29 765.57 381.75 759.25 C 374.21 752.93 367.04 745.86 359.25 739.75 C 351.46 733.64 343.97 726.88 335.75 721.25 C 327.54 715.61 319.57 710.21 310.92 705.08 C 302.26 699.96 293.43 694.19 284.25 689.75 C 275.07 685.30 265.41 679.93 255.77 676.23 C 246.13 672.53 234.69 667.64 224.78 665.22 C 214.87 662.80 201.85 656.91 191.98 657.02 C 182.10 657.14 180.89 673.67 171.30 678.30 C 161.71 682.94 151.50 690.19 140.00 689.00 C 128.50 687.81 117.66 685.32 108.92 678.08 C 100.18 670.84 96.22 663.93 92.22 653.78 C 88.23 643.62 89.24 627.66 93.93 617.93 C 98.62 608.20 104.21 601.42 113.25 595.25 C 122.28 589.07 135.60 586.29 147.00 587.00
C 177.86 516.45 184.99 432.06 163.00 357.00
C 162.48 356.18 162.39 356.09 162.00 355.00
C 157.76 343.14 154.05 335.97 150.68 323.32 C 147.31 310.67 130.16 314.94 119.92 310.08 C 109.69 305.21 101.46 300.45 95.25 290.75 C 89.03 281.06 87.06 268.04 87.98 256.98 C 88.89 245.91 93.69 234.59 101.30 226.30 C 108.92 218.02 119.25 212.85 130.00 211.00
C 135.05 210.13 140.62 209.45 146.00 210.00
C 164.34 211.88 180.57 225.30 188.00 242.00
C 269.42 225.05 343.57 179.97 401.00 117.00
C 381.32 86.03 400.58 38.50 438.00 34.00
C 439.14 33.65 439.73 33.20 441.00 33.00
C 485.18 26.22 518.26 79.59 494.00 116.00
C 500.07 122.83 506.64 128.91 513.25 135.75 C 519.86 142.59 526.93 148.82 534.08 154.92 C 541.24 161.02 547.99 166.85 555.75 172.25 C 563.50 177.66 571.14 183.48 579.25 188.75 C 587.35 194.03 595.64 197.66 604.08 202.92 C 612.51 208.18 621.43 211.94 630.68 216.32 C 639.92 220.70 648.11 223.78 658.07 227.93 C 668.04 232.07 677.95 232.89 688.67 237.33 C 699.39 241.77 709.58 241.18 714.30 230.30 C 719.03 219.42 727.67 218.59 736.23 213.23 C 744.79 207.87 762.09 209.09 771.22 211.78 C 780.35 214.47 788.74 219.25 795.25 226.75 C 801.75 234.26 806.38 243.88 807.93 254.07 C 809.47 264.26 807.22 278.31 802.07 287.07 C 796.93 295.84 791.26 301.91 782.30 307.30 C 773.34 312.70 760.17 315.41 749.00 314.00
C 746.45 321.40 743.16 329.12 740.00 336.00 Z"/>
</g>
<g fill="#494949" fill-opacity="0.80" stroke="None">
<path d="
M 438.00 34.00 
C 437.37 34.42 436.35 35.19 436.00 36.00
C 439.73 36.01 443.08 34.34 447.00 35.00
C 445.97 32.63 441.96 35.46 441.00 33.00
C 439.73 33.20 439.14 33.65 438.00 34.00 Z"/>
</g>
<g fill="#494949" fill-opacity="0.99" stroke="None">
<path d="
M 438.00 34.00 
C 400.58 38.50 381.32 86.03 401.00 117.00
C 343.57 179.97 269.42 225.05 188.00 242.00
C 180.57 225.30 164.34 211.88 146.00 210.00
C 144.11 210.20 141.69 211.58 138.78 212.78 C 135.87 213.97 130.88 211.12 130.00 211.00
C 119.25 212.85 108.92 218.02 101.30 226.30 C 93.69 234.59 88.89 245.91 87.98 256.98 C 87.06 268.04 89.03 281.06 95.25 290.75 C 101.46 300.45 109.69 305.21 119.92 310.08 C 130.16 314.94 147.31 310.67 150.68 323.32 C 154.05 335.97 157.76 343.14 162.00 355.00
C 162.14 352.55 161.09 348.37 162.00 346.00
C 163.46 351.29 164.95 356.57 166.00 362.00
C 163.93 361.12 164.79 357.96 163.00 357.00
C 184.99 432.06 177.86 516.45 147.00 587.00
C 135.60 586.29 122.28 589.07 113.25 595.25 C 104.21 601.42 98.62 608.20 93.93 617.93 C 89.24 627.66 88.23 643.62 92.22 653.78 C 96.22 663.93 100.18 670.84 108.92 678.08 C 117.66 685.32 128.50 687.81 140.00 689.00 C 151.50 690.19 161.71 682.94 171.30 678.30 C 180.89 673.67 182.10 657.14 191.98 657.02 C 201.85 656.91 214.87 662.80 224.78 665.22 C 234.69 667.64 246.13 672.53 255.77 676.23 C 265.41 679.93 275.07 685.30 284.25 689.75 C 293.43 694.19 302.26 699.96 310.92 705.08 C 319.57 710.21 327.54 715.61 335.75 721.25 C 343.97 726.88 351.46 733.64 359.25 739.75 C 367.04 745.86 374.21 752.93 381.75 759.25 C 389.29 765.57 393.82 774.31 402.00 780.00
C 395.52 791.86 395.98 810.66 400.68 822.32 C 405.37 833.98 413.92 844.08 424.92 849.08 C 435.93 854.07 454.92 859.19 465.00 851.00
C 463.28 851.38 461.70 851.44 460.00 852.00
C 460.54 849.89 468.20 847.67 466.00 851.00
C 475.85 847.06 486.08 840.12 491.08 830.08 C 496.08 820.04 502.92 804.00 496.99 792.01 C 491.07 780.02 499.34 773.57 508.25 765.25 C 517.16 756.93 523.29 750.42 532.25 743.25 C 541.21 736.07 548.70 729.47 557.92 722.92 C 567.14 716.36 575.84 710.34 585.75 704.75 C 595.67 699.17 604.43 693.01 614.92 687.92 C 625.42 682.83 635.83 678.44 646.92 673.92 C 658.01 669.41 669.46 665.76 681.33 662.33 C 693.19 658.90 707.31 653.49 712.75 666.25 C 718.18 679.02 728.39 680.68 738.93 686.07 C 749.47 691.47 766.55 689.04 776.92 683.92 C 787.30 678.81 794.81 671.72 800.23 661.23 C 805.65 650.74 807.68 634.62 803.78 623.22 C 799.88 611.83 794.52 603.59 784.70 596.30 C 774.88 589.01 761.53 586.00 749.00 587.00
C 714.59 511.06 710.77 418.87 739.00 340.00
C 738.96 341.04 737.47 340.55 737.93 337.92 C 738.39 335.30 741.24 334.40 740.00 336.00
C 743.16 329.12 746.45 321.40 749.00 314.00
C 760.17 315.41 773.34 312.70 782.30 307.30 C 791.26 301.91 796.93 295.84 802.07 287.07 C 807.22 278.31 809.47 264.26 807.93 254.07 C 806.38 243.88 801.75 234.26 795.25 226.75 C 788.74 219.25 780.35 214.47 771.22 211.78 C 762.09 209.09 744.79 207.87 736.23 213.23 C 727.67 218.59 719.03 219.42 714.30 230.30 C 709.58 241.18 699.39 241.77 688.67 237.33 C 677.95 232.89 668.04 232.07 658.07 227.93 C 648.11 223.78 639.92 220.70 630.68 216.32 C 621.43 211.94 612.51 208.18 604.08 202.92 C 595.64 197.66 587.35 194.03 579.25 188.75 C 571.14 183.48 563.50 177.66 555.75 172.25 C 547.99 166.85 541.24 161.02 534.08 154.92 C 526.93 148.82 519.86 142.59 513.25 135.75 C 506.64 128.91 500.07 122.83 494.00 116.00
C 518.26 79.59 485.18 26.22 441.00 33.00
C 441.96 35.46 445.97 32.63 447.00 35.00
C 443.08 34.34 439.73 36.01 436.00 36.00
C 436.35 35.19 437.37 34.42 438.00 34.00
M 451.00 56.00 
C 473.27 58.34 486.39 87.44 472.70 105.69 C 459.00 123.95 430.92 122.40 420.23 101.77 C 409.54 81.14 426.69 53.44 451.00 56.00
M 480.00 132.00 
C 540.13 197.95 618.16 245.57 704.00 262.00
C 703.69 268.33 705.03 274.25 707.00 280.00
C 695.04 287.15 683.62 294.47 671.75 301.75 C 659.88 309.04 647.62 315.25 635.77 322.77 C 623.92 330.29 612.23 336.54 600.25 344.25 C 588.28 351.97 576.74 357.13 564.75 365.75 C 552.76 374.37 538.61 364.37 526.77 357.23 C 514.93 350.09 503.38 344.25 492.75 334.25 C 482.13 324.24 474.23 316.59 466.75 303.25 C 459.26 289.92 456.29 273.22 457.00 256.00 C 457.71 238.78 456.63 217.07 457.00 199.00 C 457.37 180.93 456.72 160.30 457.00 142.00
C 465.04 139.76 473.01 136.83 480.00 132.00
M 437.00 141.00 
C 437.06 151.65 436.93 162.36 437.00 173.00 C 437.07 183.64 436.86 194.39 437.00 205.00 C 437.14 215.61 436.71 227.56 437.00 238.00 C 437.29 248.44 436.34 260.02 437.00 270.00 C 437.66 279.98 434.85 289.17 431.23 297.23 C 427.61 305.28 424.27 310.61 419.23 317.23 C 414.19 323.85 409.26 328.03 403.25 333.25 C 397.25 338.48 391.27 343.60 384.75 347.75 C 378.23 351.91 371.80 356.82 364.77 359.77 C 357.74 362.72 349.72 369.26 342.32 370.32 C 334.92 371.38 328.76 363.03 321.77 360.23 C 314.78 357.43 309.03 351.21 301.92 348.08 C 294.81 344.95 288.28 339.30 281.25 335.75 C 274.23 332.20 268.45 327.33 261.30 323.70 C 254.16 320.06 248.14 314.90 240.77 311.23 C 233.40 307.56 228.68 302.89 220.77 299.23 C 212.86 295.57 209.88 290.96 200.77 287.23 C 191.66 283.50 188.03 278.17 191.00 268.00 C 193.97 257.83 203.28 259.92 212.22 257.22 C 221.17 254.53 229.85 253.37 238.07 250.07 C 246.30 246.78 253.42 244.43 261.22 241.22 C 269.03 238.02 275.92 235.04 283.23 231.23 C 290.54 227.42 298.21 224.28 305.08 220.08 C 311.94 215.87 318.64 212.60 325.23 208.23 C 331.82 203.86 338.74 199.61 345.08 195.08 C 351.42 190.55 357.25 186.07 363.25 181.25 C 369.25 176.42 374.93 171.81 380.75 166.75 C 386.57 161.70 391.82 155.62 397.75 150.75 C 403.68 145.88 407.62 138.82 413.30 134.30 C 418.99 129.79 429.80 143.53 437.00 141.00
M 143.00 232.00 
C 164.78 234.29 177.01 262.29 163.70 279.70 C 150.38 297.10 123.61 295.62 113.08 275.92 C 102.55 256.22 119.66 229.54 143.00 232.00
M 764.00 233.00 
C 784.46 237.24 792.43 266.56 778.25 281.25 C 764.07 295.93 737.36 295.14 728.70 273.30 C 720.03 251.47 740.11 228.05 764.00 233.00
M 166.00 594.00 
C 206.45 505.63 205.78 395.42 166.00 307.00
C 170.22 304.05 175.18 301.61 178.00 297.00
C 185.63 300.57 191.90 305.68 199.25 309.75 C 206.59 313.83 214.10 318.22 221.23 322.77 C 228.36 327.32 236.23 330.96 243.23 335.77 C 250.23 340.58 258.10 344.20 265.08 348.92 C 272.06 353.64 280.36 357.08 287.08 361.92 C 293.79 366.77 302.81 369.67 308.75 375.25 C 314.68 380.84 326.80 380.07 328.97 389.03 C 331.14 397.99 328.10 413.86 329.00 424.00 C 329.90 434.14 328.72 448.69 329.00 459.00 C 329.28 469.31 329.00 482.67 327.00 492.00 C 325.00 501.33 322.14 509.65 317.08 517.08 C 312.01 524.51 302.88 525.99 296.25 531.25 C 289.63 536.52 281.79 538.92 274.92 543.92 C 268.05 548.92 260.06 552.24 252.92 556.92 C 245.79 561.61 238.46 565.44 231.25 570.25 C 224.05 575.07 216.53 578.02 209.30 583.30 C 202.07 588.58 194.84 590.56 187.31 596.31 C 179.77 602.05 173.26 601.62 166.00 594.00
M 725.00 582.00 
C 724.45 580.46 723.96 578.75 724.00 577.00
C 725.40 578.02 728.71 585.05 725.00 583.00
C 727.43 588.89 730.57 592.68 725.00 597.00
C 724.57 597.56 722.83 602.62 720.00 603.00
C 719.45 601.18 721.75 600.53 722.00 599.00
C 720.90 599.81 719.34 600.53 719.00 602.00
C 711.10 598.14 703.48 593.84 695.92 589.08 C 688.36 584.32 680.54 579.76 672.92 575.08 C 665.30 570.41 657.42 565.95 649.92 561.08 C 642.42 556.22 634.18 552.23 626.77 547.23 C 619.36 542.23 610.84 538.82 603.77 533.23 C 596.70 527.64 586.80 526.12 580.31 519.70 C 573.81 513.27 571.91 502.46 569.67 493.33 C 567.43 484.20 566.02 470.28 566.00 460.00 C 565.99 449.72 564.86 433.07 566.00 423.00 C 567.14 412.93 562.35 395.08 567.26 387.26 C 572.16 379.44 583.55 378.93 590.23 373.23 C 596.91 367.53 606.07 364.57 613.23 359.23 C 620.39 353.89 629.28 350.88 636.70 345.70 C 644.11 340.51 652.03 336.73 659.70 331.70 C 667.37 326.67 674.98 323.16 682.75 317.75 C 690.51 312.34 698.21 310.38 706.08 304.08 C 713.96 297.79 721.56 298.17 729.00 306.00
C 692.38 391.02 687.59 496.38 725.00 582.00
M 561.00 520.00 
C 515.53 532.82 469.41 561.36 447.00 605.00
C 427.18 559.81 378.79 533.11 334.00 520.00
C 351.74 479.16 342.81 430.99 345.00 386.00
C 385.92 370.68 429.36 343.29 447.00 301.00
C 452.20 307.89 455.77 316.76 461.25 323.75 C 466.73 330.75 472.07 336.98 478.75 343.25 C 485.44 349.52 492.62 353.50 499.70 359.30 C 506.77 365.11 515.20 367.82 522.70 373.31 C 530.19 378.79 540.04 379.97 547.68 385.32 C 555.32 390.68 549.83 408.86 551.00 419.00 C 552.17 429.14 550.67 445.03 551.00 456.00 C 551.33 466.97 551.04 480.50 552.99 491.01 C 554.94 501.52 557.78 510.03 561.00 520.00
M 713.00 358.00 
C 713.08 360.44 712.66 363.40 711.00 365.00
C 710.92 362.56 711.35 359.60 713.00 358.00
M 167.00 364.00 
C 169.79 370.92 164.41 369.35 167.00 364.00
M 169.00 372.00 
C 171.79 376.83 166.21 375.36 169.00 372.00
M 553.00 469.00 
C 554.26 476.32 550.06 473.99 553.00 469.00
M 415.00 764.00 
C 355.05 698.32 276.62 651.85 191.00 636.00
C 191.64 629.58 188.31 624.20 188.00 618.00
C 197.94 613.90 206.66 607.37 216.08 602.08 C 225.50 596.79 234.77 590.42 244.23 585.23 C 253.68 580.04 262.74 573.21 272.25 568.25 C 281.75 563.29 289.99 555.97 299.75 551.75 C 309.50 547.53 318.21 537.13 329.01 536.01 C 339.80 534.88 352.88 543.42 362.68 547.32 C 372.47 551.22 381.28 557.81 390.23 563.77 C 399.18 569.73 406.96 575.72 414.75 584.25 C 422.54 592.77 427.78 599.88 432.77 611.23 C 437.76 622.58 436.74 637.17 437.00 651.00 C 437.26 664.83 436.20 681.41 437.00 696.00 C 437.80 710.59 435.14 725.93 437.00 741.00 C 438.86 756.07 425.70 756.74 415.00 764.00
M 681.00 603.00 
C 680.48 602.04 679.81 601.20 680.00 600.00
C 680.83 600.52 683.91 602.25 682.00 603.00
C 685.60 606.54 693.13 611.24 698.00 613.00
C 697.23 612.20 696.53 610.94 696.00 610.00
C 698.37 610.03 699.72 612.50 702.00 613.00
C 701.54 614.86 699.96 613.16 699.00 613.00
C 700.94 616.12 708.17 616.37 707.64 620.70 C 707.12 625.03 703.68 630.04 705.00 635.00
C 674.28 642.40 643.03 650.48 615.00 665.00
C 616.11 664.03 616.05 665.30 613.92 666.92 C 611.79 668.55 609.78 667.04 610.00 667.00
C 577.69 682.83 544.21 702.77 518.00 728.00
C 519.23 727.13 520.36 725.86 522.00 726.00
C 520.92 727.90 517.44 731.08 516.00 730.00
C 511.71 733.74 507.07 737.66 502.75 741.75 C 498.43 745.84 493.55 749.81 489.25 754.25 C 484.95 758.69 482.02 765.61 476.75 761.25 C 471.49 756.89 464.56 754.86 458.00 754.00
C 457.34 736.41 457.37 717.64 457.00 698.00 C 456.63 678.36 457.41 654.40 458.00 636.00 C 458.59 617.60 465.02 602.65 476.25 589.25 C 487.49 575.86 497.97 569.14 511.70 559.70 C 525.42 550.26 539.26 544.24 555.22 538.22 C 571.19 532.21 586.16 546.61 599.75 554.25 C 613.33 561.90 626.77 570.71 640.25 578.75 C 653.72 586.80 667.79 594.39 681.00 603.00
M 760.00 588.00 
C 756.01 590.80 753.81 586.90 760.00 588.00
M 147.00 609.00 
C 183.27 615.50 170.12 676.26 134.00 667.00 C 97.88 657.74 110.27 602.42 147.00 609.00
M 773.00 615.00 
C 772.47 614.26 772.12 613.06 771.00 613.00
C 772.63 611.70 774.44 609.46 777.00 610.00
C 778.70 611.72 777.03 615.29 780.00 616.00
C 779.26 617.35 777.17 616.96 776.00 618.00
C 787.98 629.97 785.34 648.75 774.00 660.00
C 773.43 660.81 773.05 661.49 772.00 662.00
C 761.44 670.27 749.92 666.29 739.00 662.00
C 740.05 662.78 740.93 664.30 742.00 665.00
C 738.58 667.20 736.71 663.96 734.00 663.00
C 734.53 661.40 736.75 662.28 738.00 662.00
C 732.53 654.17 723.95 645.49 726.00 635.00 C 728.05 624.51 732.88 617.31 742.08 612.08 C 751.29 606.85 764.78 608.35 773.00 615.00
M 707.00 630.00 
C 708.21 636.27 704.10 633.91 707.00 630.00
M 786.00 634.00 
C 787.29 642.37 783.03 640.06 786.00 634.00
M 705.00 655.00 
C 700.17 659.84 696.84 653.38 705.00 655.00
M 453.00 775.00 
C 474.33 779.03 483.53 805.17 470.25 821.25 C 456.96 837.33 431.98 837.37 421.70 816.30 C 411.42 795.23 429.12 775.31 451.00 774.00
C 450.79 774.01 456.22 773.88 453.00 775.00 Z"/>
</g>
<g fill="#000000" fill-opacity="0.00" stroke="None">
<path d="
M 451.00 56.00 
C 426.69 53.44 409.54 81.14 420.23 101.77 C 430.92 122.40 459.00 123.95 472.70 105.69 C 486.39 87.44 473.27 58.34 451.00 56.00 Z"/>
</g>
<g fill="#000000" fill-opacity="0.00" stroke="None">
<path d="
M 480.00 132.00 
C 473.01 136.83 465.04 139.76 457.00 142.00
C 456.72 160.30 457.37 180.93 457.00 199.00 C 456.63 217.07 457.71 238.78 457.00 256.00 C 456.29 273.22 459.26 289.92 466.75 303.25 C 474.23 316.59 482.13 324.24 492.75 334.25 C 503.38 344.25 514.93 350.09 526.77 357.23 C 538.61 364.37 552.76 374.37 564.75 365.75 C 576.74 357.13 588.28 351.97 600.25 344.25 C 612.23 336.54 623.92 330.29 635.77 322.77 C 647.62 315.25 659.88 309.04 671.75 301.75 C 683.62 294.47 695.04 287.15 707.00 280.00
C 705.03 274.25 703.69 268.33 704.00 262.00
C 618.16 245.57 540.13 197.95 480.00 132.00 Z"/>
</g>
<g fill="#000000" fill-opacity="0.00" stroke="None">
<path d="
M 437.00 141.00 
C 429.80 143.53 418.99 129.79 413.30 134.30 C 407.62 138.82 403.68 145.88 397.75 150.75 C 391.82 155.62 386.57 161.70 380.75 166.75 C 374.93 171.81 369.25 176.42 363.25 181.25 C 357.25 186.07 351.42 190.55 345.08 195.08 C 338.74 199.61 331.82 203.86 325.23 208.23 C 318.64 212.60 311.94 215.87 305.08 220.08 C 298.21 224.28 290.54 227.42 283.23 231.23 C 275.92 235.04 269.03 238.02 261.22 241.22 C 253.42 244.43 246.30 246.78 238.07 250.07 C 229.85 253.37 221.17 254.53 212.22 257.22 C 203.28 259.92 193.97 257.83 191.00 268.00 C 188.03 278.17 191.66 283.50 200.77 287.23 C 209.88 290.96 212.86 295.57 220.77 299.23 C 228.68 302.89 233.40 307.56 240.77 311.23 C 248.14 314.90 254.16 320.06 261.30 323.70 C 268.45 327.33 274.23 332.20 281.25 335.75 C 288.28 339.30 294.81 344.95 301.92 348.08 C 309.03 351.21 314.78 357.43 321.77 360.23 C 328.76 363.03 334.92 371.38 342.32 370.32 C 349.72 369.26 357.74 362.72 364.77 359.77 C 371.80 356.82 378.23 351.91 384.75 347.75 C 391.27 343.60 397.25 338.48 403.25 333.25 C 409.26 328.03 414.19 323.85 419.23 317.23 C 424.27 310.61 427.61 305.28 431.23 297.23 C 434.85 289.17 437.66 279.98 437.00 270.00 C 436.34 260.02 437.29 248.44 437.00 238.00 C 436.71 227.56 437.14 215.61 437.00 205.00 C 436.86 194.39 437.07 183.64 437.00 173.00 C 436.93 162.36 437.06 151.65 437.00 141.00 Z"/>
</g>
<g fill="#494949" fill-opacity="0.73" stroke="None">
<path d="
M 130.00 211.00 
C 130.88 211.12 135.87 213.97 138.78 212.78 C 141.69 211.58 144.11 210.20 146.00 210.00
C 140.62 209.45 135.05 210.13 130.00 211.00 Z"/>
</g>
<g fill="#000000" fill-opacity="0.00" stroke="None">
<path d="
M 143.00 232.00 
C 119.66 229.54 102.55 256.22 113.08 275.92 C 123.61 295.62 150.38 297.10 163.70 279.70 C 177.01 262.29 164.78 234.29 143.00 232.00 Z"/>
</g>
<g fill="#000000" fill-opacity="0.00" stroke="None">
<path d="
M 764.00 233.00 
C 740.11 228.05 720.03 251.47 728.70 273.30 C 737.36 295.14 764.07 295.93 778.25 281.25 C 792.43 266.56 784.46 237.24 764.00 233.00 Z"/>
</g>
<g fill="#000000" fill-opacity="0.00" stroke="None">
<path d="
M 166.00 594.00 
C 173.26 601.62 179.77 602.05 187.31 596.31 C 194.84 590.56 202.07 588.58 209.30 583.30 C 216.53 578.02 224.05 575.07 231.25 570.25 C 238.46 565.44 245.79 561.61 252.92 556.92 C 260.06 552.24 268.05 548.92 274.92 543.92 C 281.79 538.92 289.63 536.52 296.25 531.25 C 302.88 525.99 312.01 524.51 317.08 517.08 C 322.14 509.65 325.00 501.33 327.00 492.00 C 329.00 482.67 329.28 469.31 329.00 459.00 C 328.72 448.69 329.90 434.14 329.00 424.00 C 328.10 413.86 331.14 397.99 328.97 389.03 C 326.80 380.07 314.68 380.84 308.75 375.25 C 302.81 369.67 293.79 366.77 287.08 361.92 C 280.36 357.08 272.06 353.64 265.08 348.92 C 258.10 344.20 250.23 340.58 243.23 335.77 C 236.23 330.96 228.36 327.32 221.23 322.77 C 214.10 318.22 206.59 313.83 199.25 309.75 C 191.90 305.68 185.63 300.57 178.00 297.00
C 175.18 301.61 170.22 304.05 166.00 307.00
C 205.78 395.42 206.45 505.63 166.00 594.00 Z"/>
</g>
<g fill="#000000" fill-opacity="0.00" stroke="None">
<path d="
M 722.00 599.00 
C 722.95 598.30 724.12 597.69 725.00 597.00
C 730.57 592.68 727.43 588.89 725.00 583.00
C 724.82 582.57 725.00 582.00 725.00 582.00
C 687.59 496.38 692.38 391.02 729.00 306.00
C 721.56 298.17 713.96 297.79 706.08 304.08 C 698.21 310.38 690.51 312.34 682.75 317.75 C 674.98 323.16 667.37 326.67 659.70 331.70 C 652.03 336.73 644.11 340.51 636.70 345.70 C 629.28 350.88 620.39 353.89 613.23 359.23 C 606.07 364.57 596.91 367.53 590.23 373.23 C 583.55 378.93 572.16 379.44 567.26 387.26 C 562.35 395.08 567.14 412.93 566.00 423.00 C 564.86 433.07 565.99 449.72 566.00 460.00 C 566.02 470.28 567.43 484.20 569.67 493.33 C 571.91 502.46 573.81 513.27 580.31 519.70 C 586.80 526.12 596.70 527.64 603.77 533.23 C 610.84 538.82 619.36 542.23 626.77 547.23 C 634.18 552.23 642.42 556.22 649.92 561.08 C 657.42 565.95 665.30 570.41 672.92 575.08 C 680.54 579.76 688.36 584.32 695.92 589.08 C 703.48 593.84 711.10 598.14 719.00 602.00
C 719.34 600.53 720.90 599.81 722.00 599.00 Z"/>
</g>
<g fill="#000000" fill-opacity="0.00" stroke="None">
<path d="
M 561.00 520.00 
C 557.78 510.03 554.94 501.52 552.99 491.01 C 551.04 480.50 551.33 466.97 551.00 456.00 C 550.67 445.03 552.17 429.14 551.00 419.00 C 549.83 408.86 555.32 390.68 547.68 385.32 C 540.04 379.97 530.19 378.79 522.70 373.31 C 515.20 367.82 506.77 365.11 499.70 359.30 C 492.62 353.50 485.44 349.52 478.75 343.25 C 472.07 336.98 466.73 330.75 461.25 323.75 C 455.77 316.76 452.20 307.89 447.00 301.00
C 429.36 343.29 385.92 370.68 345.00 386.00
C 342.81 430.99 351.74 479.16 334.00 520.00
C 378.79 533.11 427.18 559.81 447.00 605.00
C 469.41 561.36 515.53 532.82 561.00 520.00
M 459.00 362.00 
C 526.09 368.49 562.87 453.99 522.23 507.23 C 481.59 560.47 396.55 557.16 365.75 494.25 C 334.94 431.35 386.49 354.98 459.00 362.00 Z"/>
</g>
<g fill="#474747" fill-opacity="0.76" stroke="None">
<path d="
M 739.00 340.00 
C 739.50 338.61 739.57 337.35 740.00 336.00
C 741.24 334.40 738.39 335.30 737.93 337.92 C 737.47 340.55 738.96 341.04 739.00 340.00 Z"/>
</g>
<g fill="#494949" fill-opacity="0.86" stroke="None">
<path d="
M 162.00 355.00 
C 162.39 356.09 162.48 356.18 163.00 357.00
C 164.79 357.96 163.93 361.12 166.00 362.00
C 164.95 356.57 163.46 351.29 162.00 346.00
C 161.09 348.37 162.14 352.55 162.00 355.00 Z"/>
</g>
<g fill="#494949" fill-opacity="0.76" stroke="None">
<path d="
M 713.00 358.00 
C 711.35 359.60 710.92 362.56 711.00 365.00
C 712.66 363.40 713.08 360.44 713.00 358.00 Z"/>
</g>
<g fill="#494949" fill-opacity="0.99" stroke="None">
<path d="
M 459.00 362.00 
C 386.49 354.98 334.94 431.35 365.75 494.25 C 396.55 557.16 481.59 560.47 522.23 507.23 C 562.87 453.99 526.09 368.49 459.00 362.00
M 453.00 402.00 
C 490.23 406.50 511.97 451.92 489.70 482.70 C 467.42 513.47 420.21 510.31 402.23 476.77 C 384.25 443.23 413.58 397.24 453.00 402.00 Z"/>
</g>
<g fill="#494949" fill-opacity="0.83" stroke="None">
<path d="
M 167.00 364.00 
C 164.41 369.35 169.79 370.92 167.00 364.00 Z"/>
</g>
<g fill="#494949" fill-opacity="0.82" stroke="None">
<path d="
M 169.00 372.00 
C 166.21 375.36 171.79 376.83 169.00 372.00 Z"/>
</g>
<g fill="#000000" fill-opacity="0.00" stroke="None">
<path d="
M 453.00 402.00 
C 413.58 397.24 384.25 443.23 402.23 476.77 C 420.21 510.31 467.42 513.47 489.70 482.70 C 511.97 451.92 490.23 406.50 453.00 402.00 Z"/>
</g>
<g fill="#494949" fill-opacity="0.83" stroke="None">
<path d="
M 553.00 469.00 
C 550.06 473.99 554.26 476.32 553.00 469.00 Z"/>
</g>
<g fill="#000000" fill-opacity="0.00" stroke="None">
<path d="
M 415.00 764.00 
C 425.70 756.74 438.86 756.07 437.00 741.00 C 435.14 725.93 437.80 710.59 437.00 696.00 C 436.20 681.41 437.26 664.83 437.00 651.00 C 436.74 637.17 437.76 622.58 432.77 611.23 C 427.78 599.88 422.54 592.77 414.75 584.25 C 406.96 575.72 399.18 569.73 390.23 563.77 C 381.28 557.81 372.47 551.22 362.68 547.32 C 352.88 543.42 339.80 534.88 329.01 536.01 C 318.21 537.13 309.50 547.53 299.75 551.75 C 289.99 555.97 281.75 563.29 272.25 568.25 C 262.74 573.21 253.68 580.04 244.23 585.23 C 234.77 590.42 225.50 596.79 216.08 602.08 C 206.66 607.37 197.94 613.90 188.00 618.00
C 188.31 624.20 191.64 629.58 191.00 636.00
C 276.62 651.85 355.05 698.32 415.00 764.00 Z"/>
</g>
<g fill="#000000" fill-opacity="0.00" stroke="None">
<path d="
M 516.00 730.00 
C 516.58 729.50 517.46 728.52 518.00 728.00
C 544.21 702.77 577.69 682.83 610.00 667.00
C 611.68 666.18 613.37 665.72 615.00 665.00
C 643.03 650.48 674.28 642.40 705.00 635.00
C 703.68 630.04 707.12 625.03 707.64 620.70 C 708.17 616.37 700.94 616.12 699.00 613.00
C 698.58 612.82 698.00 613.00 698.00 613.00
C 693.13 611.24 685.60 606.54 682.00 603.00
C 681.75 602.75 681.00 603.00 681.00 603.00
C 667.79 594.39 653.72 586.80 640.25 578.75 C 626.77 570.71 613.33 561.90 599.75 554.25 C 586.16 546.61 571.19 532.21 555.22 538.22 C 539.26 544.24 525.42 550.26 511.70 559.70 C 497.97 569.14 487.49 575.86 476.25 589.25 C 465.02 602.65 458.59 617.60 458.00 636.00 C 457.41 654.40 456.63 678.36 457.00 698.00 C 457.37 717.64 457.34 736.41 458.00 754.00
C 464.56 754.86 471.49 756.89 476.75 761.25 C 482.02 765.61 484.95 758.69 489.25 754.25 C 493.55 749.81 498.43 745.84 502.75 741.75 C 507.07 737.66 511.71 733.74 516.00 730.00 Z"/>
</g>
<g fill="#494949" fill-opacity="0.78" stroke="None">
<path d="
M 725.00 582.00 
C 725.00 582.00 724.82 582.57 725.00 583.00
C 728.71 585.05 725.40 578.02 724.00 577.00
C 723.96 578.75 724.45 580.46 725.00 582.00 Z"/>
</g>
<g fill="#494949" fill-opacity="0.70" stroke="None">
<path d="
M 760.00 588.00 
C 753.81 586.90 756.01 590.80 760.00 588.00 Z"/>
</g>
<g fill="#494949" fill-opacity="0.83" stroke="None">
<path d="
M 722.00 599.00 
C 721.75 600.53 719.45 601.18 720.00 603.00
C 722.83 602.62 724.57 597.56 725.00 597.00
C 724.12 597.69 722.95 598.30 722.00 599.00 Z"/>
</g>
<g fill="#494949" fill-opacity="0.75" stroke="None">
<path d="
M 681.00 603.00 
C 681.00 603.00 681.75 602.75 682.00 603.00
C 683.91 602.25 680.83 600.52 680.00 600.00
C 679.81 601.20 680.48 602.04 681.00 603.00 Z"/>
</g>
<g fill="#000000" fill-opacity="0.00" stroke="None">
<path d="
M 147.00 609.00 
C 110.27 602.42 97.88 657.74 134.00 667.00 C 170.12 676.26 183.27 615.50 147.00 609.00 Z"/>
</g>
<g fill="#000000" fill-opacity="0.00" stroke="None">
<path d="
M 738.00 662.00 
C 738.50 662.03 739.00 662.00 739.00 662.00
C 749.92 666.29 761.44 670.27 772.00 662.00
C 772.49 661.62 773.56 660.44 774.00 660.00
C 785.34 648.75 787.98 629.97 776.00 618.00
C 775.21 617.21 773.88 615.71 773.00 615.00
C 764.78 608.35 751.29 606.85 742.08 612.08 C 732.88 617.31 728.05 624.51 726.00 635.00 C 723.95 645.49 732.53 654.17 738.00 662.00 Z"/>
</g>
<g fill="#494949" fill-opacity="0.84" stroke="None">
<path d="
M 698.00 613.00 
C 698.00 613.00 698.58 612.82 699.00 613.00
C 699.96 613.16 701.54 614.86 702.00 613.00
C 699.72 612.50 698.37 610.03 696.00 610.00
C 696.53 610.94 697.23 612.20 698.00 613.00 Z"/>
</g>
<g fill="#494949" fill-opacity="0.80" stroke="None">
<path d="
M 773.00 615.00 
C 773.88 615.71 775.21 617.21 776.00 618.00
C 777.17 616.96 779.26 617.35 780.00 616.00
C 777.03 615.29 778.70 611.72 777.00 610.00
C 774.44 609.46 772.63 611.70 771.00 613.00
C 772.12 613.06 772.47 614.26 773.00 615.00 Z"/>
</g>
<g fill="#494949" fill-opacity="0.69" stroke="None">
<path d="
M 707.00 630.00 
C 704.10 633.91 708.21 636.27 707.00 630.00 Z"/>
</g>
<g fill="#494949" fill-opacity="0.71" stroke="None">
<path d="
M 786.00 634.00 
C 783.03 640.06 787.29 642.37 786.00 634.00 Z"/>
</g>
<g fill="#494949" fill-opacity="0.80" stroke="None">
<path d="
M 705.00 655.00 
C 696.84 653.38 700.17 659.84 705.00 655.00 Z"/>
</g>
<g fill="#494949" fill-opacity="0.71" stroke="None">
<path d="
M 772.00 662.00 
C 773.05 661.49 773.43 660.81 774.00 660.00
C 773.56 660.44 772.49 661.62 772.00 662.00 Z"/>
</g>
<g fill="#494949" fill-opacity="0.83" stroke="None">
<path d="
M 739.00 662.00 
C 739.00 662.00 738.50 662.03 738.00 662.00
C 736.75 662.28 734.53 661.40 734.00 663.00
C 736.71 663.96 738.58 667.20 742.00 665.00
C 740.93 664.30 740.05 662.78 739.00 662.00 Z"/>
</g>
<g fill="#494949" fill-opacity="0.85" stroke="None">
<path d="
M 610.00 667.00 
C 609.78 667.04 611.79 668.55 613.92 666.92 C 616.05 665.30 616.11 664.03 615.00 665.00
C 613.37 665.72 611.68 666.18 610.00 667.00 Z"/>
</g>
<g fill="#494949" fill-opacity="0.75" stroke="None">
<path d="
M 518.00 728.00 
C 517.46 728.52 516.58 729.50 516.00 730.00
C 517.44 731.08 520.92 727.90 522.00 726.00
C 520.36 725.86 519.23 727.13 518.00 728.00 Z"/>
</g>
<g fill="#494949" fill-opacity="0.63" stroke="None">
<path d="
M 451.00 774.00 
C 451.47 774.13 452.12 774.83 453.00 775.00
C 456.22 773.88 450.79 774.01 451.00 774.00 Z"/>
</g>
<g fill="#000000" fill-opacity="0.00" stroke="None">
<path d="
M 453.00 775.00 
C 452.12 774.83 451.47 774.13 451.00 774.00
C 429.12 775.31 411.42 795.23 421.70 816.30 C 431.98 837.37 456.96 837.33 470.25 821.25 C 483.53 805.17 474.33 779.03 453.00 775.00 Z"/>
</g>
<g fill="#494949" fill-opacity="0.76" stroke="None">
<path d="
M 465.00 851.00 
C 465.00 851.00 465.53 851.11 466.00 851.00
C 468.20 847.67 460.54 849.89 460.00 852.00
C 461.70 851.44 463.28 851.38 465.00 851.00 Z"/>
</g>
</svg>